<svg width="48" height="48" viewBox="0 0 48 48" fill="none" xmlns="http://www.w3.org/2000/svg">
<path d="M14.5361 22.2528C19.1398 22.2528 22.0406 19.7306 22.0406 15.644C22.0406 12.9941 20.8741 11.1104 18.6037 10.1846C20.0542 9.22676 20.8109 7.53467 20.8109 5.61906C20.8109 2.13908 17.9415 0 13.3379 0H0.0314941V22.2528H14.5361ZM5.80182 4.21431H12.7388C14.2208 4.21431 15.0091 5.01247 15.0091 6.44915C15.0091 7.9497 14.2208 8.74787 12.7388 8.74787H5.80182V4.21431ZM5.80182 12.8664H13.4956C15.2929 12.8664 16.2388 13.6965 16.2388 15.3247C16.2388 17.0488 15.2613 18.0385 13.4956 18.0385H5.80182V12.8664Z" fill="black"/>
<path d="M35.9863 22.2528C43.7117 22.2528 47.9999 18.3897 47.9999 11.302C47.9999 4.08659 43.5854 0 36.0494 0H24.6033V22.2528H35.9863ZM30.3736 4.75706H35.3243C38.5404 4.75706 42.198 5.87448 42.198 11.1424C42.198 17.4957 36.6169 17.4957 34.8513 17.4957H30.3736V4.75706Z" fill="black"/>
<path d="M16.2704 39.4118C18.9822 38.6137 20.937 36.762 20.937 32.7393C20.937 26.9606 16.8064 25.7473 11.6983 25.7473H0V48.0001H5.67572V39.9546H10.5316L15.1353 48.0001H21.6624L16.2704 39.4118ZM11.4776 29.9617C13.0857 29.9617 15.1983 30.1532 15.1983 32.8031C15.1983 35.4849 13.1172 35.7084 11.4776 35.7084H5.67572V29.9617H11.4776Z" fill="black"/>
<path d="M37.2958 34.3995L47.7644 25.7473H39.7868L29.6022 34.6868V25.7473H23.8948V48.0001H29.6022V40.7529L33.2598 37.7517L40.9536 48.0001H47.9221L37.2958 34.3995Z" fill="black"/>
</svg>
