<svg width="188" height="30" viewBox="0 0 188 30" fill="none" xmlns="http://www.w3.org/2000/svg">
<path d="M18.9506 29C24.7906 29 28.4706 25.84 28.4706 20.72C28.4706 17.4 26.9906 15.04 24.1106 13.88C25.9506 12.68 26.9106 10.56 26.9106 8.16C26.9106 3.8 23.2706 1.12 17.4306 1.12H0.550625V29H18.9506ZM7.87063 6.4H16.6706C18.5506 6.4 19.5506 7.4 19.5506 9.2C19.5506 11.08 18.5506 12.08 16.6706 12.08H7.87063V6.4ZM7.87063 17.24H17.6306C19.9106 17.24 21.1106 18.28 21.1106 20.32C21.1106 22.48 19.8706 23.72 17.6306 23.72H7.87063V17.24ZM54.7616 29V23.72H38.9616V17.64H53.6816V12.28H38.9616V6.4H54.7616V1.12H31.7216V29H54.7616ZM72.9975 29C82.7975 29 88.2375 24.16 88.2375 15.28C88.2375 6.24 82.6375 1.12 73.0775 1.12H58.5575V29H72.9975ZM65.8775 7.08H72.1575C76.2375 7.08 80.8775 8.48 80.8775 15.08C80.8775 23.04 73.7975 23.04 71.5575 23.04H65.8775V7.08ZM112.088 18.24C115.528 17.24 118.008 14.92 118.008 9.88C118.008 2.64 112.768 1.12 106.288 1.12H91.4481V29H98.6481V18.92H104.808L110.648 29H118.928L112.088 18.24ZM106.008 6.4C108.048 6.4 110.728 6.64 110.728 9.96C110.728 13.32 108.088 13.6 106.008 13.6H98.6481V6.4H106.008ZM137.241 29.68C147.641 29.68 153.841 23.96 153.841 15.08C153.841 6.16 147.761 0.439998 137.241 0.439998C126.841 0.439998 120.641 6.24 120.641 15.08C120.641 23.92 126.841 29.68 137.241 29.68ZM137.241 23.72C131.161 23.72 127.881 20.4 127.881 15.08C127.881 9.76 131.121 6.4 137.241 6.4C143.321 6.4 146.521 9.76 146.521 15.08C146.521 20.36 143.321 23.72 137.241 23.72ZM174.034 11.96L187.314 1.12H177.194L164.274 12.32V1.12H157.034V29H164.274V19.92L168.914 16.16L178.674 29H187.514L174.034 11.96Z" fill="black"/>
</svg>
